<svg width="78" height="123" viewBox="0 0 78 123" fill="none" xmlns="http://www.w3.org/2000/svg">
<g filter="url(#filter0_d_7_2)">
<path d="M14.1535 114.551C9.12763 114.542 5.05694 110.767 5.04726 106.105V8.90173C5.05694 4.24064 9.12763 0.465405 14.1535 0.456421H63.8465C68.8704 0.467202 72.9411 4.24244 72.9528 8.90173V106.098C72.9411 110.761 68.8646 114.538 63.8368 114.544L14.1535 114.551Z" fill="#BEC8DC"/>
<path d="M63.8465 0.898438C68.6108 0.903828 72.4703 4.4832 72.4761 8.90172V106.098C72.4684 110.517 68.6089 114.096 63.8446 114.102H14.1535C9.38919 114.096 5.52969 110.517 5.52388 106.098V8.90172C5.52969 4.4832 9.38919 0.903828 14.1535 0.898438H63.8465ZM63.8465 0H14.1535C8.85832 0.014375 4.57063 3.99086 4.55513 8.90172V106.098C4.57063 111.009 8.85832 114.986 14.1535 115H63.8446C69.1398 114.986 73.4274 111.009 73.4449 106.098V8.90172C73.4294 3.99086 69.1417 0.014375 63.8465 0Z" fill="#AAC1CE"/>
<path d="M68.8995 9.07422H9.10049V99.7625H68.8995V9.07422Z" fill="#415E72"/>
<path d="M47.9687 5.91352H35.7314C35.1792 5.91172 34.7336 5.49844 34.7317 4.98633C34.7336 4.47422 35.1792 4.06094 35.7314 4.05914H47.9687C48.5209 4.06094 48.9665 4.47422 48.9684 4.98633C48.9665 5.49844 48.5209 5.91172 47.9687 5.91352Z" fill="#AAC1CE"/>
<path d="M30.0313 5.91352C30.5835 5.91352 31.0311 5.4984 31.0311 4.98633C31.0311 4.47426 30.5835 4.05914 30.0313 4.05914C29.4792 4.05914 29.0316 4.47426 29.0316 4.98633C29.0316 5.4984 29.4792 5.91352 30.0313 5.91352Z" fill="#AAC1CE"/>
<path d="M39 111.34C36.3882 111.34 34.2725 109.378 34.2725 106.955C34.2725 104.533 36.3882 102.571 39 102.571C41.6117 102.571 43.7275 104.533 43.7275 106.955C43.7236 109.376 41.6098 111.336 39 111.34ZM39 103.468C36.9249 103.468 35.2412 105.029 35.2412 106.954C35.2412 108.878 36.9249 110.44 39 110.44C41.0751 110.44 42.7587 108.878 42.7587 106.954C42.7568 105.029 41.0751 103.469 39 103.468Z" fill="black"/>
<path d="M64.1875 66.5203H13.8125V94.1994H64.1875V66.5203Z" fill="white"/>
<path d="M58.4486 70.9119H19.5436V72.2344H58.4486V70.9119Z" fill="#415E72"/>
<path d="M58.4486 75.3717H19.5436V76.6942H58.4486V75.3717Z" fill="#CFDCE5"/>
<path d="M58.4486 78.7876H19.5436V80.1101H58.4486V78.7876Z" fill="#CFDCE5"/>
<path d="M58.4486 82.2016H19.5436V83.5241H58.4486V82.2016Z" fill="#CFDCE5"/>
<path d="M58.4486 85.6175H19.5436V86.94H58.4486V85.6175Z" fill="#CFDCE5"/>
<path d="M58.4486 89.0315H19.5436V90.354H58.4486V89.0315Z" fill="#CFDCE5"/>
<path d="M64.1875 35.0894H13.8125V62.7684H64.1875V35.0894Z" fill="white"/>
<path d="M58.4486 39.4827H19.5436V40.8052H58.4486V39.4827Z" fill="#415E72"/>
<path d="M58.4486 43.9444H19.5436V45.2669H58.4486V43.9444Z" fill="#CFDCE5"/>
<path d="M58.4486 47.3603H19.5436V48.6828H58.4486V47.3603Z" fill="#CFDCE5"/>
<path d="M58.4486 50.7797H19.5436V52.1022H58.4486V50.7797Z" fill="#CFDCE5"/>
<path d="M58.4486 54.1938H19.5436V55.5163H58.4486V54.1938Z" fill="#CFDCE5"/>
<path d="M58.4486 57.6078H19.5436V58.9303H58.4486V57.6078Z" fill="#CFDCE5"/>
<path d="M64.1875 14.6643H13.8125V31.3411H64.1875V14.6643Z" fill="#E04F5F"/>
<path d="M42.9967 107.166C42.9967 109.375 41.2058 110.666 38.9967 110.666C36.7875 110.666 34.9967 109.375 34.9967 107.166C34.9967 104.956 36.7875 103.166 38.9967 103.166C41.2058 103.166 42.9967 104.956 42.9967 107.166Z" fill="white"/>
</g>
<defs>
<filter id="filter0_d_7_2" x="0" y="0" width="77.4449" height="123" filterUnits="userSpaceOnUse" color-interpolation-filters="sRGB">
<feFlood flood-opacity="0" result="BackgroundImageFix"/>
<feColorMatrix in="SourceAlpha" type="matrix" values="0 0 0 0 0 0 0 0 0 0 0 0 0 0 0 0 0 0 127 0" result="hardAlpha"/>
<feOffset dy="4"/>
<feGaussianBlur stdDeviation="2"/>
<feComposite in2="hardAlpha" operator="out"/>
<feColorMatrix type="matrix" values="0 0 0 0 0 0 0 0 0 0 0 0 0 0 0 0 0 0 0.25 0"/>
<feBlend mode="normal" in2="BackgroundImageFix" result="effect1_dropShadow_7_2"/>
<feBlend mode="normal" in="SourceGraphic" in2="effect1_dropShadow_7_2" result="shape"/>
</filter>
</defs>
</svg>
