<svg width="123" height="123" viewBox="0 0 123 123" fill="none" xmlns="http://www.w3.org/2000/svg">
<g clip-path="url(#clip0_4_18)" filter="url(#filter0_d_4_18)">
<path d="M75.8326 92.76H46.2619V107.871H75.8326V92.76Z" fill="#96A5B9"/>
<path d="M3.25012 77.6486V2.664C3.25012 0.563513 4.39531 0.412399 6.00154 0.412399H116.219C117.827 0.412399 118.844 0.563513 118.844 2.664V77.6486H3.25012Z" fill="#1E2C33"/>
<path d="M3.25012 77.6486V89.8217C3.25012 91.8281 4.39531 94.439 6.00154 94.439H116.219C117.827 94.439 118.844 91.8281 118.844 89.8217V77.6486H3.25012Z" fill="#BEC8DC"/>
<path d="M113.468 7.12859H8.6266V70.9324H113.468V7.12859Z" fill="#E16B5A"/>
<path d="M85.2414 111.23C85.2414 109.376 84.0371 107.871 82.5531 107.871H39.5413C38.0574 107.871 36.8531 109.376 36.8531 111.23C36.8531 113.083 38.0574 114.588 39.5413 114.588H82.5531C84.0371 114.588 85.2414 113.083 85.2414 111.23Z" fill="#BEC8DC"/>
<path d="M61.1145 87.7228C62.5991 87.7228 63.8027 86.2194 63.8027 84.3648C63.8027 82.5101 62.5991 81.0067 61.1145 81.0067C59.6298 81.0067 58.4262 82.5101 58.4262 84.3648C58.4262 86.2194 59.6298 87.7228 61.1145 87.7228Z" fill="#1E2C33"/>
<path d="M18.0354 8.80763H12.659V65.8952H18.0354V8.80763Z" fill="#F5F5F5"/>
<path d="M15.3136 14.33L15.9373 14.1789L14.1173 12.3555L14.698 15.1779L15.0663 14.5298L15.5528 15.4751L15.8002 15.2753L15.3203 14.3435L15.3136 14.33Z" fill="#242424"/>
<path d="M16.616 19.2564H16.4292V19.0717C16.4292 18.9659 16.362 18.8853 16.28 18.8853H14.413C14.331 18.8853 14.2638 18.9692 14.2638 19.0717V19.2564H14.1523C14.1106 19.2564 14.077 19.2967 14.077 19.3504C14.077 19.4008 14.1106 19.4444 14.1523 19.4444H14.2638V19.6308C14.2638 19.7349 14.331 19.8155 14.413 19.8155H16.28C16.362 19.8155 16.4292 19.7315 16.4292 19.6308V19.4444H16.5408V20.064L15.2235 20.3309C15.1872 20.3377 15.1604 20.3746 15.1604 20.425V20.7507H15.1227C15.0394 20.7507 14.9735 20.8347 14.9735 20.9354V22.0536C14.9735 22.1594 15.0407 22.24 15.1227 22.24H15.3472C15.4292 22.24 15.4964 22.1561 15.4964 22.0536V20.9354C15.4964 20.8313 15.4292 20.7507 15.3472 20.7507H15.3096V20.5056L16.6268 20.2369C16.6631 20.2302 16.69 20.1933 16.69 20.1446V19.3504C16.6913 19.2967 16.6577 19.2564 16.616 19.2564Z" fill="#242424"/>
<path d="M15.0125 26.4729C15.0327 26.4662 15.0515 26.4612 15.0716 26.4528C15.1402 26.4326 15.2155 26.389 15.2934 26.3268C15.405 26.2412 15.5165 26.1253 15.6214 25.9944C16.0649 25.4403 16.3929 24.5554 16.3526 24.5017C16.3123 24.453 15.616 24.8442 15.1604 25.4151C15.0542 25.5478 14.9601 25.6888 14.8888 25.8315C14.8431 25.9255 14.8109 26.0095 14.7934 26.0901C14.7867 26.1186 14.7813 26.1472 14.7773 26.1757C14.2638 26.2076 14.4896 26.8776 14.202 27.0942C14.4009 27.0942 14.7423 27.0908 14.8767 26.9229C15.0085 26.7583 15.0246 26.5837 15.0125 26.4729Z" fill="#242424"/>
<path d="M86.5425 48.9637C88.2186 48.6817 89.9929 47.0278 91.587 45.0381C95.2282 40.4879 97.9272 33.2042 97.5912 32.7861C97.2578 32.3714 91.5453 35.5918 87.7912 40.2831C86.2065 42.261 84.8879 44.5193 84.6433 46.5896L86.5425 48.9637Z" fill="#263740"/>
<path d="M86.0505 42.81C85.2414 44.1751 84.7037 45.4797 84.6433 46.5895L86.5425 48.9637C87.4444 48.9016 88.4874 48.2283 89.5735 47.2108L86.0505 42.81Z" fill="#E6E6E6"/>
<path d="M86.5425 48.9637L84.6433 46.5895C80.3649 46.7877 82.2413 52.3604 79.8649 54.1419C81.5061 54.1402 84.3126 54.1251 85.4215 52.7399C86.5291 51.3547 86.6447 49.8838 86.5425 48.9637Z" fill="#FFD464"/>
<path d="M28.7884 22.24C31.1876 21.1503 33.8436 20.7742 36.4646 21.1939C39.0843 21.6322 41.618 22.8444 43.8882 24.5134C48.469 27.8514 52.0779 32.6232 55.539 37.249C57.2447 39.6047 58.9276 41.957 60.6561 44.2086C62.3604 46.4888 64.1602 48.6128 66.085 50.4832C68.0246 52.3084 70.151 53.8279 72.5112 54.5029C74.8634 55.2299 77.4052 54.9898 79.8649 54.1452C77.631 55.6816 74.971 56.4539 72.3029 56.1316C69.6321 55.7957 67.0944 54.424 64.8874 52.6341C60.437 49.0191 57.0135 44.1213 53.5618 39.5224C50.1558 34.8664 46.7794 30.2322 42.7726 26.7214C40.7631 25.0003 38.583 23.5815 36.2133 22.8075C33.8503 21.9831 31.3234 21.8706 28.7884 22.24Z" fill="#263740"/>
</g>
<defs>
<filter id="filter0_d_4_18" x="0" y="0" width="123" height="123" filterUnits="userSpaceOnUse" color-interpolation-filters="sRGB">
<feFlood flood-opacity="0" result="BackgroundImageFix"/>
<feColorMatrix in="SourceAlpha" type="matrix" values="0 0 0 0 0 0 0 0 0 0 0 0 0 0 0 0 0 0 127 0" result="hardAlpha"/>
<feOffset dy="4"/>
<feGaussianBlur stdDeviation="2"/>
<feComposite in2="hardAlpha" operator="out"/>
<feColorMatrix type="matrix" values="0 0 0 0 0 0 0 0 0 0 0 0 0 0 0 0 0 0 0.25 0"/>
<feBlend mode="normal" in2="BackgroundImageFix" result="effect1_dropShadow_4_18"/>
<feBlend mode="normal" in="SourceGraphic" in2="effect1_dropShadow_4_18" result="shape"/>
</filter>
<clipPath id="clip0_4_18">
<rect width="115" height="115" fill="white" transform="translate(4)"/>
</clipPath>
</defs>
</svg>
