<svg width="123" height="115" viewBox="0 0 123 115" fill="none" xmlns="http://www.w3.org/2000/svg">
<g clip-path="url(#clip0_9_2)" filter="url(#filter0_d_9_2)">
<path d="M119 26.3542V14.373C119 11.7268 116.856 9.58237 114.21 9.58237H23.1692C20.523 9.58237 18.3752 11.7266 18.3752 14.373V26.3545L119 26.3542Z" fill="#E6E9ED"/>
<path d="M119 91.0438H104.969H18.375V19.167H119V69.3266V91.0438Z" fill="#F5F7FA"/>
<path d="M27.9594 14.373C27.9594 15.6961 26.8856 16.7699 25.5625 16.7699C24.2394 16.7699 23.1692 15.6961 23.1692 14.373C23.1692 13.0497 24.2396 11.9795 25.5625 11.9795C26.8854 11.9795 27.9594 13.0497 27.9594 14.373Z" fill="#ED5564"/>
<path d="M35.1471 14.373C35.1471 15.6961 34.0733 16.7699 32.75 16.7699C31.4269 16.7699 30.3567 15.6961 30.3567 14.373C30.3567 13.0497 31.4271 11.9795 32.75 11.9795C34.0731 11.9792 35.1471 13.0497 35.1471 14.373Z" fill="#FFCE54"/>
<path d="M42.3344 14.373C42.3344 15.6961 41.2606 16.7699 39.9375 16.7699C38.6144 16.7699 37.544 15.6961 37.544 14.373C37.544 13.0497 38.6146 11.9795 39.9375 11.9795C41.2604 11.9795 42.3344 13.0497 42.3344 14.373Z" fill="#A0D468"/>
<path d="M109.42 67.0808H71.0848V91.0429H109.42V67.0808Z" fill="#48CFAD"/>
<path d="M109.42 28.7482H27.9598V62.2951H109.42V28.7482Z" fill="#5D9CEC"/>
<path d="M92.6469 43.1225H44.7315C43.4084 43.1225 42.3344 44.1963 42.3344 45.5196C42.3344 46.8427 43.4084 47.9165 44.7315 47.9165H92.6469C93.9702 47.9165 95.044 46.8427 95.044 45.5196C95.0442 44.1966 93.9702 43.1225 92.6469 43.1225Z" fill="#434A54"/>
<path d="M85.4596 79.3639H4V52.7074L18.375 43.1225H71.0846L85.4596 52.7074V79.3639Z" fill="#434A54"/>
<path d="M85.4598 52.7078H4V81.4556H85.4598V52.7078Z" fill="#656D78"/>
<path d="M75.875 64.6871C75.875 67.333 73.7308 69.4808 71.0844 69.4808C68.438 69.4808 66.2938 67.333 66.2938 64.6871C66.2938 62.0409 68.438 59.8946 71.0844 59.8946C73.7308 59.8946 75.875 62.0409 75.875 64.6871Z" fill="#A0D468"/>
<path d="M22.467 60.5966C21.5299 59.6595 20.0139 59.6595 19.0768 60.5966L14.2862 65.3888C13.349 66.3224 13.349 67.8383 14.2862 68.779C14.7528 69.2423 15.3672 69.4808 15.9813 69.4808C16.592 69.4808 17.2061 69.2421 17.6728 68.779L22.4668 63.9851C23.4007 63.0515 23.4007 61.5286 22.467 60.5966Z" fill="#434A54"/>
<path d="M32.0482 60.5966C31.1147 59.6595 29.5951 59.6595 28.6616 60.5966L23.871 65.3891C22.9339 66.3226 22.9339 67.8385 23.871 68.7793C24.3376 69.2426 24.952 69.4811 25.5625 69.4811C26.1766 69.4811 26.7909 69.2423 27.2576 68.7793L32.0482 63.9853C32.9851 63.0515 32.9851 61.5286 32.0482 60.5966Z" fill="#434A54"/>
<path d="M41.6326 60.5966C40.6955 59.6595 39.1795 59.6595 38.246 60.5966L33.452 65.3888C32.5185 66.3224 32.5185 67.8383 33.452 68.779C33.9187 69.2423 34.533 69.4808 35.1471 69.4808C35.7612 69.4808 36.372 69.2421 36.8422 68.779L41.6328 63.9851C42.5695 63.0515 42.5695 61.5286 41.6326 60.5966Z" fill="#434A54"/>
<path d="M85.4598 76.6679H4V105.418H85.4598V76.6679Z" fill="#656D78"/>
<path d="M85.4598 74.2672H4V79.0611H85.4598V74.2672Z" fill="#434A54"/>
<path d="M75.875 93.437C75.875 96.0832 73.7308 98.231 71.0844 98.231C68.438 98.231 66.2938 96.0832 66.2938 93.437C66.2938 90.7911 68.438 88.6431 71.0844 88.6431C73.7308 88.6431 75.875 90.7911 75.875 93.437Z" fill="#A0D468"/>
<path d="M22.467 89.3451C21.5299 88.4115 20.0139 88.4115 19.0768 89.3451L14.2862 94.1391C13.349 95.0724 13.349 96.5885 14.2862 97.5293C14.7528 97.9925 15.3672 98.231 15.9813 98.231C16.592 98.231 17.2061 97.9923 17.6728 97.5293L22.4668 92.7353C23.4007 91.8017 23.4007 90.2784 22.467 89.3451Z" fill="#434A54"/>
<path d="M32.0482 89.3451C31.1147 88.4115 29.5951 88.4115 28.6616 89.3451L23.871 94.1391C22.9339 95.0724 22.9339 96.5885 23.871 97.5293C24.3376 97.9925 24.952 98.231 25.5625 98.231C26.1766 98.231 26.7909 97.9923 27.2576 97.5293L32.0482 92.7353C32.9851 91.8017 32.9851 90.2784 32.0482 89.3451Z" fill="#434A54"/>
<path d="M41.6326 89.3451C40.6955 88.4115 39.1795 88.4115 38.246 89.3451L33.452 94.1391C32.5185 95.0724 32.5185 96.5885 33.452 97.5293C33.9187 97.9925 34.533 98.231 35.1471 98.231C35.7612 98.231 36.372 97.9923 36.8422 97.5293L41.6328 92.7353C42.5695 91.8017 42.5695 90.2784 41.6326 89.3451Z" fill="#434A54"/>
</g>
<defs>
<filter id="filter0_d_9_2" x="0" y="0" width="123" height="123" filterUnits="userSpaceOnUse" color-interpolation-filters="sRGB">
<feFlood flood-opacity="0" result="BackgroundImageFix"/>
<feColorMatrix in="SourceAlpha" type="matrix" values="0 0 0 0 0 0 0 0 0 0 0 0 0 0 0 0 0 0 127 0" result="hardAlpha"/>
<feOffset dy="4"/>
<feGaussianBlur stdDeviation="2"/>
<feComposite in2="hardAlpha" operator="out"/>
<feColorMatrix type="matrix" values="0 0 0 0 0 0 0 0 0 0 0 0 0 0 0 0 0 0 0.25 0"/>
<feBlend mode="normal" in2="BackgroundImageFix" result="effect1_dropShadow_9_2"/>
<feBlend mode="normal" in="SourceGraphic" in2="effect1_dropShadow_9_2" result="shape"/>
</filter>
<clipPath id="clip0_9_2">
<rect width="115" height="115" fill="white" transform="translate(4)"/>
</clipPath>
</defs>
</svg>
