<svg width="123" height="123" viewBox="0 0 123 123" fill="none" xmlns="http://www.w3.org/2000/svg">
<g clip-path="url(#clip0_8_2)" filter="url(#filter0_d_8_2)">
<path d="M75.8326 92.76H46.2619V107.871H75.8326V92.76Z" fill="#96A5B9"/>
<path d="M3.25012 77.6486V2.664C3.25012 0.563513 4.39531 0.412399 6.00154 0.412399H116.219C117.827 0.412399 118.844 0.563513 118.844 2.664V77.6486H3.25012Z" fill="#1E2C33"/>
<path d="M3.25012 77.6486V89.8217C3.25012 91.8281 4.39531 94.439 6.00154 94.439H116.219C117.827 94.439 118.844 91.8281 118.844 89.8217V77.6486H3.25012Z" fill="#BEC8DC"/>
<path d="M113.468 7.12859H8.6266V70.9324H113.468V7.12859Z" fill="#E16B5A"/>
<path d="M85.2414 111.23C85.2414 109.376 84.0371 107.871 82.5531 107.871H39.5413C38.0574 107.871 36.8531 109.376 36.8531 111.23C36.8531 113.083 38.0574 114.588 39.5413 114.588H82.5531C84.0371 114.588 85.2414 113.083 85.2414 111.23Z" fill="#BEC8DC"/>
<path d="M61.1145 87.7228C62.5991 87.7228 63.8027 86.2194 63.8027 84.3648C63.8027 82.5101 62.5991 81.0067 61.1145 81.0067C59.6298 81.0067 58.4262 82.5101 58.4262 84.3648C58.4262 86.2194 59.6298 87.7228 61.1145 87.7228Z" fill="#1E2C33"/>
<path d="M115 16.7353H8V71.3499H115V16.7353Z" fill="black"/>
<path d="M8 18.1856V8.4758C8 7.13517 9.50469 6.0383 11.3438 6.0383H111.648C113.487 6.0383 114.992 7.13517 114.992 8.4758V18.1844H8V18.1856Z" fill="#D6D6D6"/>
<path d="M106.562 15.4641H43.8483L49.847 8.76099H106.562V15.4641Z" fill="white"/>
<path d="M19.2651 14.0942C20.8357 14.0942 22.109 13.1661 22.109 12.0211C22.109 10.8762 20.8357 9.94804 19.2651 9.94804C17.6945 9.94804 16.4212 10.8762 16.4212 12.0211C16.4212 13.1661 17.6945 14.0942 19.2651 14.0942Z" fill="#E50914"/>
<path d="M26.8036 14.0942C28.3742 14.0942 29.6474 13.1661 29.6474 12.0211C29.6474 10.8762 28.3742 9.94804 26.8036 9.94804C25.233 9.94804 23.9597 10.8762 23.9597 12.0211C23.9597 13.1661 25.233 14.0942 26.8036 14.0942Z" fill="#939393"/>
<path d="M34.3437 14.0942C35.9144 14.0942 37.1876 13.1661 37.1876 12.0211C37.1876 10.8762 35.9144 9.94804 34.3437 9.94804C32.7731 9.94804 31.4999 10.8762 31.4999 12.0211C31.4999 13.1661 32.7731 14.0942 34.3437 14.0942Z" fill="#C9C9C9"/>
<path d="M53.062 10.8536L53.4616 12.1199C53.5486 12.4172 53.6355 12.7207 53.7057 13.0242H53.7224C53.801 12.7207 53.9264 12.4111 54.0368 12.126L54.5316 10.8536H55.3174L55.7972 12.0918C55.9143 12.4185 56.0163 12.7219 56.1032 13.0254H56.1199C56.1818 12.7219 56.2687 12.4185 56.3707 12.0918L56.7953 10.8536H57.745L56.5429 13.6433H55.6468L55.192 12.5086C55.075 12.2174 54.988 11.9529 54.9011 11.6153H54.8844C54.8058 11.959 54.7055 12.2344 54.5935 12.5086L54.107 13.6433H53.2025L52.0706 10.8536H53.062V10.8536Z" fill="black"/>
<path d="M59.0741 10.8536L59.4737 12.1199C59.5606 12.4172 59.6476 12.7207 59.7178 13.0242H59.7345C59.8131 12.7207 59.9385 12.4111 60.0488 12.126L60.5437 10.8536H61.3295L61.8093 12.0918C61.9263 12.4185 62.0283 12.7219 62.1153 13.0254H62.132C62.1938 12.7219 62.2808 12.4185 62.3828 12.0918L62.8074 10.8536H63.757L62.555 13.6433H61.6588L61.2041 12.5086C61.087 12.2174 61.0001 11.9529 60.9132 11.6153H60.8965C60.8179 11.959 60.7176 12.2344 60.6055 12.5086L60.119 13.6433H59.2145L58.0827 10.8536H59.0741V10.8536Z" fill="black"/>
<path d="M65.0862 10.8536L65.4857 12.1199C65.5727 12.4172 65.6596 12.7207 65.7298 13.0242H65.7466C65.8251 12.7207 65.9505 12.4111 66.0609 12.126L66.5557 10.8536H67.3415L67.8214 12.0918C67.9384 12.4185 68.0404 12.7219 68.1273 13.0254H68.144C68.2059 12.7219 68.2928 12.4185 68.3948 12.0918L68.8195 10.8536H69.7691L68.567 13.6433H67.6692L67.2145 12.5086C67.0974 12.2174 67.0105 11.9529 66.9236 11.6153H66.9068C66.8283 11.959 66.728 12.2344 66.6159 12.5086L66.1294 13.6433H65.2249L64.0931 10.8536H65.0862V10.8536Z" fill="black"/>
<path d="M69.9246 13.2545C69.9246 12.99 70.1754 12.8024 70.5214 12.8024C70.8759 12.8024 71.1183 12.9852 71.1183 13.2545C71.1183 13.5117 70.8826 13.7067 70.5214 13.7067C70.1704 13.7067 69.9246 13.5117 69.9246 13.2545Z" fill="black"/>
<path d="M115 70.0166H8V71.9617H115V70.0166Z" fill="black"/>
<path d="M112.857 70.0154H99.1021H93.1269H78.3458L74.6008 67.9398H48.3992L44.6542 70.0154H29.8731H23.8979H10.1433H8V71.9605H115V70.0154H112.857Z" fill="#E50914"/>
<path d="M100.027 14.093L99.4298 13.6664L101.496 12.1186L99.3061 10.5611L99.8896 10.126L102.678 12.1064L100.027 14.093Z" fill="black"/>
<path d="M101.632 11.8079H96.1112V12.4172H101.632V11.8079Z" fill="black"/>
<path d="M89.524 49.0663H32.1619V50.285H89.524V49.0663Z" fill="white"/>
<path d="M79.3573 54.5579H41.6047V55.7767H79.3573V54.5579Z" fill="white"/>
<path d="M102.797 40.8787H20.203V28.807H102.797V40.8787Z" fill="white"/>
<path d="M89.5708 38.0256C86.7804 38.0256 84.51 36.3705 84.51 34.3364C84.51 32.3011 86.7804 30.6461 89.5708 30.6461C92.3611 30.6461 94.6316 32.3011 94.6316 34.3364C94.6316 36.3705 92.3611 38.0256 89.5708 38.0256ZM89.5708 31.8648C87.7016 31.8648 86.1819 32.9739 86.1819 34.3364C86.1819 35.699 87.7016 36.8069 89.5708 36.8069C91.4399 36.8069 92.9597 35.699 92.9597 34.3364C92.9597 32.9739 91.4399 31.8648 89.5708 31.8648Z" fill="black"/>
<path d="M94.6602 38.9052L95.8427 38.0437L92.933 35.9214L91.7505 36.7829L94.6602 38.9052Z" fill="black"/>
<path d="M27.1313 36.4071C27.5442 36.5814 28.1645 36.7313 28.8165 36.7313C29.6324 36.7313 30.0871 36.4522 30.0871 36.039C30.0871 35.6551 29.736 35.4285 28.8483 35.1957C27.6997 34.8946 26.9674 34.451 26.9674 33.7198C26.9674 32.891 27.917 32.2585 29.4267 32.2585C30.1808 32.2585 30.7392 32.3791 31.1003 32.5144L30.7893 33.2603C30.5436 33.1628 30.057 33.019 29.4067 33.019C28.6008 33.019 28.2497 33.3359 28.2497 33.6296C28.2497 34.0208 28.6527 34.2024 29.5822 34.4656C30.791 34.7971 31.3795 35.242 31.3795 35.972C31.3795 36.7849 30.5319 37.493 28.7346 37.493C28.0023 37.493 27.2366 37.3431 26.8537 37.1774L27.1313 36.4071Z" fill="black"/>
<path d="M33.4292 35.8416C33.461 36.5046 34.1732 36.791 34.979 36.791C35.5692 36.791 35.9922 36.7301 36.3751 36.6253L36.5606 37.2639C36.126 37.3919 35.5274 37.4906 34.8035 37.4906C33.1701 37.4906 32.2087 36.7593 32.2087 35.6381C32.2087 34.6204 33.0564 33.6649 34.6697 33.6649C36.3015 33.6649 36.8382 34.6436 36.8382 35.4492C36.8382 35.6234 36.8181 35.7587 36.798 35.8404L33.4292 35.8416ZM35.6394 35.1944C35.6511 34.8556 35.4438 34.2987 34.5962 34.2987C33.8104 34.2987 33.481 34.8191 33.4292 35.1944H35.6394Z" fill="black"/>
<path d="M40.6885 37.4162L40.6049 37.0092H40.5731C40.2622 37.2956 39.7355 37.4991 39.0852 37.4991C38.0737 37.4991 37.5036 36.9641 37.5036 36.4071C37.5036 35.4809 38.6304 35.0129 40.4895 35.0214V34.9604C40.4895 34.7204 40.3558 34.3206 39.468 34.3206C38.9715 34.3206 38.4565 34.4339 38.1138 34.5924L37.8664 33.9903C38.2392 33.8234 38.8879 33.6661 39.6854 33.6661C41.2971 33.6661 41.7618 34.4108 41.7618 35.2103V36.5363C41.7618 36.8666 41.7819 37.1908 41.8337 37.4174L40.6885 37.4162ZM40.5213 35.6234C39.6235 35.6076 38.7658 35.7502 38.7658 36.3084C38.7658 36.6704 39.0852 36.8361 39.4898 36.8361C39.9963 36.8361 40.3658 36.5948 40.4812 36.3315C40.513 36.2633 40.5213 36.1889 40.5213 36.128V35.6234Z" fill="black"/>
<path d="M43.0993 34.9312C43.0993 34.434 43.0876 34.0805 43.0575 33.7478H44.1627L44.2045 34.4486H44.2446C44.492 33.9282 45.0822 33.6649 45.6189 33.6649C45.7426 33.6649 45.8145 33.6722 45.9181 33.6881V34.5619C45.8145 34.5461 45.7008 34.5314 45.5453 34.5314C44.9367 34.5314 44.5238 34.8179 44.4084 35.2322C44.3884 35.3139 44.3683 35.4126 44.3683 35.5174V37.4162H43.0977L43.0993 34.9312Z" fill="black"/>
<path d="M50.3787 37.3029C50.1112 37.3931 49.5829 37.4906 48.9526 37.4906C47.3827 37.4906 46.3578 36.7593 46.3578 35.6234C46.3578 34.5241 47.391 33.6661 49.1582 33.6661C49.623 33.6661 50.0978 33.7417 50.387 33.8392L50.1597 34.5314C49.954 34.4632 49.6531 34.3889 49.2 34.3889C48.2287 34.3889 47.6485 34.9093 47.6602 35.5796C47.6602 36.3328 48.3306 36.7618 49.2 36.7618C49.6447 36.7618 49.954 36.6935 50.2031 36.6192L50.3787 37.3029Z" fill="black"/>
<path d="M51.3133 32.0684H52.5939V34.2524H52.6157C52.7711 34.0793 52.9768 33.9355 53.246 33.8307C53.4934 33.7246 53.7927 33.6649 54.1153 33.6649C54.973 33.6649 55.8708 34.0793 55.8708 35.2542V37.415H54.6002V35.3578C54.6002 34.824 54.331 34.4242 53.6288 34.4242C53.1323 34.4242 52.7812 34.6643 52.6474 34.9434C52.6073 35.019 52.5956 35.1177 52.5956 35.2225V37.4138H51.3149V32.0684H51.3133Z" fill="black"/>
</g>
<defs>
<filter id="filter0_d_8_2" x="0" y="0" width="123" height="123" filterUnits="userSpaceOnUse" color-interpolation-filters="sRGB">
<feFlood flood-opacity="0" result="BackgroundImageFix"/>
<feColorMatrix in="SourceAlpha" type="matrix" values="0 0 0 0 0 0 0 0 0 0 0 0 0 0 0 0 0 0 127 0" result="hardAlpha"/>
<feOffset dy="4"/>
<feGaussianBlur stdDeviation="2"/>
<feComposite in2="hardAlpha" operator="out"/>
<feColorMatrix type="matrix" values="0 0 0 0 0 0 0 0 0 0 0 0 0 0 0 0 0 0 0.25 0"/>
<feBlend mode="normal" in2="BackgroundImageFix" result="effect1_dropShadow_8_2"/>
<feBlend mode="normal" in="SourceGraphic" in2="effect1_dropShadow_8_2" result="shape"/>
</filter>
<clipPath id="clip0_8_2">
<rect width="115" height="115" fill="white" transform="translate(4)"/>
</clipPath>
</defs>
</svg>
