<svg width="124" height="125" viewBox="0 0 124 125" fill="none" xmlns="http://www.w3.org/2000/svg">
<g filter="url(#filter0_d_5_2)">
<path d="M115.689 0.926529H7.98885C5.78578 0.926529 4 3.03087 4 5.62636V80.8244H119.678V5.62636C119.678 3.03087 117.892 0.926529 115.689 0.926529ZM113.694 22.0759V73.7745H9.98339V22.0759V7.9764H113.694V22.0759Z" fill="#464655"/>
<path d="M9.98339 73.7745H113.694V22.0759H9.98339V73.7745ZM91.7556 33.8256V31.4755C91.7556 30.1778 92.6487 29.1255 93.7502 29.1255H105.717C106.818 29.1255 107.711 30.1778 107.711 31.4755V33.8256V64.3749C107.711 65.6726 106.818 66.7249 105.717 66.7249H93.7502C92.6487 66.7249 91.7556 65.6726 91.7556 64.3749V33.8256ZM69.8166 33.8256V31.4755C69.8166 30.1778 70.7097 29.1255 71.8111 29.1255H83.7779C84.8793 29.1255 85.7725 30.1778 85.7725 31.4755V33.8256V64.3749C85.7725 65.6726 84.8793 66.7249 83.7779 66.7249H71.8111C70.7097 66.7249 69.8166 65.6726 69.8166 64.3749V33.8256ZM47.8778 33.8256V31.4755C47.8778 30.1778 48.7709 29.1255 49.8724 29.1255H61.8389C62.9403 29.1255 63.8334 30.1778 63.8334 31.4755V33.8256V64.3749C63.8334 65.6726 62.9403 66.7249 61.8389 66.7249H49.8721C48.7707 66.7249 47.8776 65.6726 47.8776 64.3749V33.8256H47.8778ZM15.9668 33.8256V31.4755C15.9668 30.1778 16.8599 29.1255 17.9613 29.1255H39.9001C41.0015 29.1255 41.8947 30.1778 41.8947 31.4755V33.8256V64.3749C41.8947 65.6726 41.0015 66.7249 39.9001 66.7249H17.9611C16.8597 66.7249 15.9666 65.6726 15.9666 64.3749V33.8256H15.9668Z" fill="white"/>
<path d="M4 90.224C4 92.8195 5.78578 94.9239 7.98885 94.9239H45.8833H77.7943H115.689C117.892 94.9239 119.678 92.8195 119.678 90.224V80.8244H4V90.224ZM61.8389 84.3492C63.4912 84.3492 64.8305 85.9275 64.8305 87.874C64.8305 89.8205 63.4909 91.3988 61.8389 91.3988C60.1867 91.3988 58.8473 89.8205 58.8473 87.874C58.8473 85.9275 60.1867 84.3492 61.8389 84.3492Z" fill="#BEC8DC"/>
<path d="M44.1382 111.374H79.5396L78.2932 99.624H45.3846L44.1382 111.374Z" fill="#AFBBD0"/>
<path d="M43.889 111.374C42.7875 111.374 41.8944 112.426 41.8944 113.724C41.8944 115.021 42.7875 116.074 43.889 116.074H79.7891C80.8905 116.074 81.7836 115.021 81.7836 113.724C81.7836 112.426 80.8905 111.374 79.7891 111.374H79.5399H44.1384H43.889Z" fill="#BEC8DC"/>
<path d="M45.3846 99.6239H78.2932L77.7945 94.9241H45.8833L45.3846 99.6239Z" fill="#96A5B9"/>
<path d="M9.98339 22.0759H113.694V7.97641H9.98339V22.0759ZM99.7333 12.6762H107.711C108.812 12.6762 109.706 13.7285 109.706 15.0263C109.706 16.324 108.812 17.3763 107.711 17.3763H99.7333C98.6319 17.3763 97.7388 16.324 97.7388 15.0263C97.739 13.7285 98.6319 12.6762 99.7333 12.6762ZM83.7777 12.6762H91.7554C92.8568 12.6762 93.7499 13.7285 93.7499 15.0263C93.7499 16.324 92.8568 17.3763 91.7554 17.3763H83.7777C82.6763 17.3763 81.7832 16.324 81.7832 15.0263C81.7834 13.7285 82.6763 12.6762 83.7777 12.6762ZM67.8223 12.6762H75.8C76.9014 12.6762 77.7945 13.7285 77.7945 15.0263C77.7945 16.324 76.9014 17.3763 75.8 17.3763H67.8223C66.7209 17.3763 65.8278 16.324 65.8278 15.0263C65.8278 13.7285 66.7209 12.6762 67.8223 12.6762ZM51.8667 12.6762H59.8444C60.9458 12.6762 61.8389 13.7285 61.8389 15.0263C61.8389 16.324 60.9458 17.3763 59.8444 17.3763H51.8667C50.7652 17.3763 49.8721 16.324 49.8721 15.0263C49.8721 13.7285 50.7652 12.6762 51.8667 12.6762ZM35.911 12.6762H43.8887C44.9902 12.6762 45.8833 13.7285 45.8833 15.0263C45.8833 16.324 44.9902 17.3763 43.8887 17.3763H35.911C34.8096 17.3763 33.9165 16.324 33.9165 15.0263C33.9167 13.7285 34.8096 12.6762 35.911 12.6762ZM15.9668 12.6762H27.9336C29.035 12.6762 29.9281 13.7285 29.9281 15.0263C29.9281 16.324 29.035 17.3763 27.9336 17.3763H15.9668C14.8654 17.3763 13.9722 16.324 13.9722 15.0263C13.9722 13.7285 14.8651 12.6762 15.9668 12.6762Z" fill="#FF6469"/>
<path d="M15.9668 17.3761H27.9336C29.035 17.3761 29.9281 16.3238 29.9281 15.026C29.9281 13.7283 29.035 12.676 27.9336 12.676H15.9668C14.8654 12.676 13.9722 13.7283 13.9722 15.026C13.9722 16.324 14.8651 17.3761 15.9668 17.3761Z" fill="#FFDC69"/>
<path d="M35.911 17.3761H43.8887C44.9902 17.3761 45.8833 16.3238 45.8833 15.026C45.8833 13.7283 44.9902 12.676 43.8887 12.676H35.911C34.8096 12.676 33.9165 13.7283 33.9165 15.026C33.9167 16.324 34.8096 17.3761 35.911 17.3761Z" fill="#D2555F"/>
<path d="M51.8667 17.3761H59.8444C60.9458 17.3761 61.8389 16.3238 61.8389 15.026C61.8389 13.7283 60.9458 12.676 59.8444 12.676H51.8667C50.7652 12.676 49.8721 13.7283 49.8721 15.026C49.8721 16.324 50.7652 17.3761 51.8667 17.3761Z" fill="#D2555F"/>
<path d="M67.8223 17.3761H75.8C76.9014 17.3761 77.7945 16.3238 77.7945 15.026C77.7945 13.7283 76.9014 12.676 75.8 12.676H67.8223C66.7209 12.676 65.8278 13.7283 65.8278 15.026C65.8278 16.324 66.7209 17.3761 67.8223 17.3761Z" fill="#D2555F"/>
<path d="M83.7777 17.3761H91.7554C92.8568 17.3761 93.7499 16.3238 93.7499 15.026C93.7499 13.7283 92.8568 12.676 91.7554 12.676H83.7777C82.6763 12.676 81.7832 13.7283 81.7832 15.026C81.7834 16.324 82.6763 17.3761 83.7777 17.3761Z" fill="#D2555F"/>
<path d="M99.7333 17.3761H107.711C108.812 17.3761 109.706 16.3238 109.706 15.026C109.706 13.7283 108.812 12.676 107.711 12.676H99.7333C98.6319 12.676 97.7388 13.7283 97.7388 15.026C97.739 16.324 98.6319 17.3761 99.7333 17.3761Z" fill="#D2555F"/>
<path d="M17.9611 66.7249H39.8999C41.0013 66.7249 41.8944 65.6726 41.8944 64.3748V33.8256C41.8944 35.1233 41.0013 36.1756 39.8999 36.1756H17.9611C16.8597 36.1756 15.9666 35.1233 15.9666 33.8256V64.3748C15.9668 65.6726 16.8597 66.7249 17.9611 66.7249Z" fill="#DEE3ED"/>
<path d="M49.8721 66.7249H61.8389C62.9403 66.7249 63.8334 65.6726 63.8334 64.3748V33.8256C63.8334 35.1233 62.9403 36.1756 61.8389 36.1756H49.8721C48.7707 36.1756 47.8776 35.1233 47.8776 33.8256V64.3748C47.8778 65.6726 48.7707 66.7249 49.8721 66.7249Z" fill="#DEE3ED"/>
<path d="M71.8111 66.7249H83.7779C84.8793 66.7249 85.7725 65.6726 85.7725 64.3748V33.8256C85.7725 35.1233 84.8793 36.1756 83.7779 36.1756H71.8111C70.7097 36.1756 69.8166 35.1233 69.8166 33.8256V64.3748C69.8166 65.6726 70.7097 66.7249 71.8111 66.7249Z" fill="#DEE3ED"/>
<path d="M93.7499 66.7249H105.717C106.818 66.7249 107.711 65.6726 107.711 64.3748V33.8256C107.711 35.1233 106.818 36.1756 105.717 36.1756H93.7499C92.6485 36.1756 91.7554 35.1233 91.7554 33.8256V64.3748C91.7556 65.6726 92.6485 66.7249 93.7499 66.7249Z" fill="#DEE3ED"/>
<path d="M17.9611 36.1756H39.8999C41.0013 36.1756 41.8944 35.1233 41.8944 33.8256V31.4755C41.8944 30.1778 41.0013 29.1255 39.8999 29.1255H17.9611C16.8597 29.1255 15.9666 30.1778 15.9666 31.4755V33.8256C15.9668 35.1233 16.8597 36.1756 17.9611 36.1756Z" fill="#FFDC69"/>
<path d="M49.8721 36.1756H61.8389C62.9403 36.1756 63.8334 35.1233 63.8334 33.8256V31.4755C63.8334 30.1778 62.9403 29.1255 61.8389 29.1255H49.8721C48.7707 29.1255 47.8776 30.1778 47.8776 31.4755V33.8256C47.8778 35.1233 48.7707 36.1756 49.8721 36.1756Z" fill="#B4E173"/>
<path d="M71.8111 36.1756H83.7779C84.8793 36.1756 85.7725 35.1233 85.7725 33.8256V31.4755C85.7725 30.1778 84.8793 29.1255 83.7779 29.1255H71.8111C70.7097 29.1255 69.8166 30.1778 69.8166 31.4755V33.8256C69.8166 35.1233 70.7097 36.1756 71.8111 36.1756Z" fill="#FF969B"/>
<path d="M93.7499 36.1756H105.717C106.818 36.1756 107.711 35.1233 107.711 33.8256V31.4755C107.711 30.1778 106.818 29.1255 105.717 29.1255H93.7499C92.6485 29.1255 91.7554 30.1778 91.7554 31.4755V33.8256C91.7556 35.1233 92.6485 36.1756 93.7499 36.1756Z" fill="#A0DCF0"/>
<path d="M61.8389 91.3991C63.4911 91.3991 64.8305 89.8209 64.8305 87.8743C64.8305 85.9276 63.4911 84.3494 61.8389 84.3494C60.1867 84.3494 58.8473 85.9276 58.8473 87.8743C58.8473 89.8209 60.1867 91.3991 61.8389 91.3991Z" fill="black"/>
</g>
<defs>
<filter id="filter0_d_5_2" x="0" y="0.926529" width="123.678" height="123.147" filterUnits="userSpaceOnUse" color-interpolation-filters="sRGB">
<feFlood flood-opacity="0" result="BackgroundImageFix"/>
<feColorMatrix in="SourceAlpha" type="matrix" values="0 0 0 0 0 0 0 0 0 0 0 0 0 0 0 0 0 0 127 0" result="hardAlpha"/>
<feOffset dy="4"/>
<feGaussianBlur stdDeviation="2"/>
<feComposite in2="hardAlpha" operator="out"/>
<feColorMatrix type="matrix" values="0 0 0 0 0 0 0 0 0 0 0 0 0 0 0 0 0 0 0.25 0"/>
<feBlend mode="normal" in2="BackgroundImageFix" result="effect1_dropShadow_5_2"/>
<feBlend mode="normal" in="SourceGraphic" in2="effect1_dropShadow_5_2" result="shape"/>
</filter>
</defs>
</svg>
