<svg width="115" height="115" viewBox="0 0 115 115" fill="none" xmlns="http://www.w3.org/2000/svg">
<g clip-path="url(#clip0_6_2)">
<g filter="url(#filter0_d_6_2)">
<path d="M81.2931 111.035H33.7069C33.7069 106.655 37.258 103.104 41.6379 103.104H73.3619C77.742 103.103 81.2931 106.655 81.2931 111.035Z" fill="#BEC8DC"/>
<path d="M71.3793 103.103H43.6207L47.5862 87.2414H67.4138L71.3793 103.103Z" fill="#96A5B9"/>
<path d="M115 71.3793H0V10.9052C0 7.07251 3.10702 3.96548 6.93976 3.96548H108.06C111.893 3.96548 115 7.07251 115 10.9052V71.3793H115Z" fill="#38454F"/>
<path d="M108.06 87.2414H6.93976C3.10702 87.2414 0 84.1344 0 80.3017V71.3793H115V80.3017C115 84.1344 111.893 87.2414 108.06 87.2414Z" fill="#BEC8DC"/>
<path d="M97.1552 63.4483H67.4138C66.3173 63.4483 65.431 62.56 65.431 61.4655C65.431 60.371 66.3173 59.4826 67.4138 59.4826H97.1552C98.2518 59.4826 99.1381 60.371 99.1381 61.4655C99.1379 62.56 98.2516 63.4483 97.1552 63.4483Z" fill="#EA6148"/>
<path d="M37.6724 51.5517H17.8448C16.7482 51.5517 15.8619 50.6633 15.8619 49.5688C15.8619 48.4743 16.7482 47.586 17.8448 47.586H37.6724C38.7689 47.586 39.6552 48.4743 39.6552 49.5688C39.6552 50.6633 38.7689 51.5517 37.6724 51.5517Z" fill="#EA6148"/>
<path d="M87.2414 51.5517H57.5C56.4035 51.5517 55.5172 50.6633 55.5172 49.5688C55.5172 48.4743 56.4035 47.586 57.5 47.586H87.2414C88.338 47.586 89.2243 48.4743 89.2243 49.5688C89.2241 50.6633 88.3377 51.5517 87.2414 51.5517Z" fill="#EA6148"/>
<path d="M47.5862 51.5517C47.3283 51.5517 47.0707 51.4922 46.8329 51.3931C46.575 51.2941 46.3769 51.1552 46.1786 50.9767C45.8196 50.6 45.6036 50.1043 45.6036 49.5688C45.6036 49.0334 45.8196 48.5379 46.1786 48.161C46.3769 47.9826 46.5752 47.8438 46.8329 47.7445C47.5446 47.4472 48.4388 47.6057 48.994 48.161C49.351 48.5376 49.569 49.0531 49.569 49.5688C49.569 50.0843 49.351 50.5998 48.994 50.9767C48.6172 51.3336 48.1017 51.5517 47.5862 51.5517Z" fill="#EA6148"/>
<path d="M57.5 63.4483H27.7586C26.662 63.4483 25.7757 62.56 25.7757 61.4655C25.7757 60.371 26.662 59.4826 27.7586 59.4826H57.5C58.5965 59.4826 59.4829 60.371 59.4829 61.4655C59.4829 62.56 58.5965 63.4483 57.5 63.4483Z" fill="#EA6148"/>
<path d="M17.8448 63.4483C17.5869 63.4483 17.3293 63.3888 17.0914 63.2898C16.8536 63.1907 16.6355 63.0519 16.4371 62.8733C16.0782 62.4967 15.8621 62.001 15.8621 61.4655C15.8621 61.2076 15.9217 60.95 16.0207 60.7121C16.1198 60.4543 16.2586 60.2562 16.4371 60.0579C16.9131 59.6019 17.5871 59.4036 18.2196 59.5226C18.3605 59.5424 18.4775 59.5821 18.5983 59.6417C18.7154 59.6814 18.8362 59.7407 18.9355 59.82C19.0525 59.8993 19.1536 59.9786 19.2526 60.0579C19.431 60.2562 19.5698 60.4545 19.669 60.7121C19.7681 60.95 19.8276 61.2079 19.8276 61.4655C19.8276 62.0007 19.6095 62.4964 19.2526 62.8733C19.1536 62.9526 19.0523 63.0319 18.9355 63.1112C18.8364 63.1905 18.7154 63.25 18.5983 63.2895C18.4775 63.3491 18.3605 63.3886 18.2196 63.4086C18.1026 63.4283 17.9638 63.4483 17.8448 63.4483Z" fill="#EA6148"/>
<path d="M97.1552 51.5517C97.0344 51.5517 96.8974 51.5319 96.7786 51.5119C96.6398 51.4922 96.5207 51.4524 96.4019 51.3929C96.2829 51.3531 96.164 51.2938 96.043 51.2145C95.9457 51.1353 95.8467 51.056 95.7476 50.9767C95.3887 50.6 95.1726 50.0845 95.1726 49.5688C95.1726 49.0533 95.3887 48.5379 95.7476 48.161L96.043 47.9231C96.164 47.8438 96.2829 47.7843 96.4019 47.7448C96.5209 47.6853 96.6398 47.6457 96.7786 47.6257C97.4131 47.4869 98.1051 47.705 98.5631 48.161C98.6424 48.26 98.7217 48.3593 98.801 48.4781C98.8802 48.5772 98.9377 48.6962 98.9793 48.8153C99.0388 48.9343 99.0783 49.0531 99.0963 49.1919C99.1181 49.311 99.1379 49.4498 99.1379 49.5686C99.1379 49.6874 99.1181 49.8265 99.0963 49.9653C99.0786 50.0843 99.0388 50.2031 98.9793 50.3222C98.9377 50.4412 98.8802 50.56 98.801 50.6791C98.7217 50.7781 98.6424 50.8774 98.5631 50.9765C98.464 51.0557 98.3627 51.135 98.2657 51.2143C98.1467 51.2936 98.0258 51.3531 97.9088 51.3927C97.788 51.4522 97.6709 51.4917 97.5301 51.5117C97.4129 51.5319 97.2741 51.5517 97.1552 51.5517Z" fill="#EA6148"/>
<path d="M97.1552 27.7586H67.4138C66.3173 27.7586 65.431 26.8703 65.431 25.7757C65.431 24.6812 66.3173 23.7929 67.4138 23.7929H97.1552C98.2518 23.7929 99.1381 24.6812 99.1381 25.7757C99.1381 26.8703 98.2516 27.7586 97.1552 27.7586Z" fill="#EA6148"/>
<path d="M97.1552 39.6552H77.3276C76.2311 39.6552 75.3448 38.7669 75.3448 37.6724C75.3448 36.5779 76.2311 35.6895 77.3276 35.6895H97.1552C98.2518 35.6895 99.1381 36.5779 99.1381 37.6724C99.1381 38.7669 98.2516 39.6552 97.1552 39.6552Z" fill="#EA6148"/>
<path d="M61.4655 39.6552H57.5C56.4035 39.6552 55.5172 38.7669 55.5172 37.6724C55.5172 36.5779 56.4035 35.6895 57.5 35.6895H61.4655C62.562 35.6895 63.4483 36.5779 63.4483 37.6724C63.4483 38.7669 62.562 39.6552 61.4655 39.6552Z" fill="#EA6148"/>
<path d="M87.2414 15.8621H57.5C56.4035 15.8621 55.5172 14.9738 55.5172 13.8793C55.5172 12.7848 56.4035 11.8964 57.5 11.8964H87.2414C88.338 11.8964 89.2243 12.7848 89.2243 13.8793C89.2243 14.9738 88.3377 15.8621 87.2414 15.8621Z" fill="#EA6148"/>
<path d="M97.1552 15.8621C97.0344 15.8621 96.8974 15.8424 96.7786 15.8224C96.6398 15.8026 96.5207 15.7629 96.4019 15.7034C96.2829 15.6636 96.164 15.6043 96.043 15.525C95.9457 15.4457 95.8467 15.3664 95.7476 15.2871C95.3887 14.9105 95.1726 14.395 95.1726 13.8793C95.1726 13.3638 95.3887 12.8483 95.7476 12.4714L96.043 12.2336C96.164 12.1543 96.2829 12.0948 96.4019 12.0552C96.5209 11.9957 96.6398 11.9562 96.7786 11.9362C97.4131 11.7974 98.1051 12.0155 98.5631 12.4714C98.6424 12.5705 98.7217 12.6698 98.801 12.7886C98.8802 12.8876 98.9377 13.0067 98.9793 13.1257C99.0388 13.2448 99.0783 13.3636 99.0963 13.5024C99.1181 13.6214 99.1379 13.7603 99.1379 13.8791C99.1379 13.9979 99.1181 14.1369 99.0963 14.2757C99.0786 14.3948 99.0388 14.5136 98.9793 14.6326C98.9377 14.7517 98.8802 14.8705 98.801 14.9895C98.7217 15.0886 98.6424 15.1879 98.5631 15.2869C98.464 15.3662 98.3627 15.4455 98.2657 15.5248C98.1467 15.6041 98.0258 15.6636 97.9088 15.7031C97.788 15.7626 97.6709 15.8022 97.5301 15.8222C97.4129 15.8422 97.2741 15.8621 97.1552 15.8621Z" fill="#EA6148"/>
<path d="M59.4829 27.7586C58.9674 27.7586 58.4499 27.5405 58.075 27.1836C57.8967 26.9853 57.7579 26.7672 57.6586 26.5293C57.5593 26.2914 57.5 26.0336 57.5 25.776C57.5 25.5181 57.5595 25.2605 57.6586 25.0226C57.7576 24.7848 57.8964 24.5667 58.075 24.3683C58.531 23.9124 59.225 23.714 59.8575 23.8331C59.9983 23.8529 60.1154 23.8926 60.2362 23.9521C60.3532 23.9919 60.4741 24.0512 60.5733 24.1305C60.6904 24.2098 60.7914 24.289 60.8707 24.3683C61.069 24.5667 61.2079 24.7848 61.3069 25.0226C61.406 25.2605 61.4655 25.5183 61.4655 25.776C61.4655 26.0338 61.406 26.2914 61.3069 26.5293C61.2079 26.7672 61.069 26.9853 60.8707 27.1836C60.7914 27.2629 60.6904 27.3422 60.5733 27.4214C60.4743 27.5007 60.3532 27.5603 60.2362 27.5998C60.1154 27.6593 59.9983 27.6988 59.8575 27.7188C59.7405 27.7388 59.6017 27.7586 59.4829 27.7586Z" fill="#EA6148"/>
<path d="M69.3967 39.6552C68.8594 39.6552 68.3637 39.4371 67.9888 39.0802C67.6299 38.7036 67.4138 38.1881 67.4138 37.6724C67.4138 37.1569 67.6299 36.6414 67.9888 36.2645C68.7224 35.531 70.0707 35.531 70.8043 36.2645C71.1612 36.6412 71.3793 37.1567 71.3793 37.6724C71.3793 37.8112 71.3595 37.9302 71.3377 38.0691C71.32 38.1881 71.2802 38.3069 71.2207 38.426C71.1792 38.545 71.1217 38.6638 71.0424 38.7829C70.9631 38.8819 70.8838 38.9812 70.8045 39.0802C70.4276 39.4371 69.9319 39.6552 69.3967 39.6552Z" fill="#EA6148"/>
<path d="M17.8448 39.6552H45.6033V11.8967H17.8448V39.6552Z" fill="#ECBA16"/>
</g>
<g filter="url(#filter1_d_6_2)">
<path d="M112.69 4H3.3104C-0.174699 4 -3 6.08424 -3 8.65522V67.6207C-3 70.1917 -0.174699 72.2759 3.3104 72.2759H112.69C116.175 72.2759 119 70.1917 119 67.6207V8.65522C119 6.08424 116.175 4 112.69 4ZM102.172 7.10342H104.276C105.438 7.10342 106.379 7.79828 106.379 8.65522C106.379 9.51215 105.438 10.207 104.276 10.207H102.172C101.011 10.207 100.069 9.51215 100.069 8.65522C100.069 7.79828 101.011 7.10342 102.172 7.10342ZM43.2759 7.10342H93.7586C94.9203 7.10342 95.8622 7.79828 95.8622 8.65522C95.8622 9.51215 94.9203 10.207 93.7586 10.207H43.2759C42.1143 10.207 41.1723 9.51215 41.1723 8.65522C41.1723 7.79828 42.1143 7.10342 43.2759 7.10342ZM32.7586 7.10342H34.8622C36.0238 7.10342 36.9657 7.79828 36.9657 8.65522C36.9657 9.51215 36.0238 10.207 34.8622 10.207H32.7586C31.597 10.207 30.6551 9.51215 30.6551 8.65522C30.6551 7.79828 31.597 7.10342 32.7586 7.10342ZM24.3449 7.10342H26.4485C27.6101 7.10342 28.552 7.79828 28.552 8.65522C28.552 9.51215 27.6101 10.207 26.4485 10.207H24.3449C23.1833 10.207 22.2414 9.51215 22.2414 8.65522C22.2414 7.79828 23.1833 7.10342 24.3449 7.10342ZM15.931 7.10342C17.0926 7.10342 18.0345 7.79828 18.0345 8.65522C18.0345 9.51215 17.0926 10.207 15.931 10.207C14.7693 10.207 13.8274 9.51215 13.8274 8.65522C13.8277 7.79828 14.7693 7.10342 15.931 7.10342ZM9.6208 7.10342C10.7824 7.10342 11.7244 7.79828 11.7244 8.65522C11.7244 9.51215 10.7824 10.207 9.6208 10.207C8.45918 10.207 7.51726 9.51215 7.51726 8.65522C7.51726 7.79828 8.45895 7.10342 9.6208 7.10342ZM3.3104 7.10342C4.47202 7.10342 5.41395 7.79828 5.41395 8.65522C5.41395 9.51215 4.47202 10.207 3.3104 10.207C2.14878 10.207 1.20686 9.51215 1.20686 8.65522C1.20686 7.79828 2.14878 7.10342 3.3104 7.10342ZM114.793 22.6207V67.6207C114.793 68.4776 113.851 69.1725 112.69 69.1725H58H3.3104C2.14878 69.1725 1.20686 68.4776 1.20686 67.6207V22.6207V14.8621C1.20686 14.0051 2.14878 13.3103 3.3104 13.3103H58H112.69C113.851 13.3103 114.793 14.0051 114.793 14.8621V22.6207V22.6207ZM112.69 10.2068H110.586C109.424 10.2068 108.483 9.51197 108.483 8.65504C108.483 7.79811 109.424 7.10324 110.586 7.10324H112.69C113.851 7.10324 114.793 7.79811 114.793 8.65504C114.793 9.51215 113.851 10.2068 112.69 10.2068Z" fill="#D2DCF0"/>
<path d="M58 69.0345H112.69C113.851 69.0345 114.793 68.3397 114.793 67.4827V22.4827H58V69.0345ZM89.5518 30.2414V28.6896C89.5518 27.8326 90.4937 27.1378 91.6553 27.1378H106.379C107.541 27.1378 108.483 27.8326 108.483 28.6896V30.2414V42.6552C108.483 43.5121 107.541 44.207 106.379 44.207H91.6553C90.4937 44.207 89.5518 43.5121 89.5518 42.6552V30.2414ZM64.3104 30.2414V28.6896C64.3104 27.8326 65.2523 27.1378 66.414 27.1378H81.1381C82.2997 27.1378 83.2416 27.8326 83.2416 28.6896V30.2414V42.6552C83.2416 43.5121 82.2997 44.207 81.1381 44.207H66.4137C65.2521 44.207 64.3102 43.5121 64.3102 42.6552V30.2414H64.3104ZM66.4137 48.862H68.5173H106.379C107.541 48.862 108.483 49.5569 108.483 50.4138V62.8277C108.483 63.6846 107.541 64.3795 106.379 64.3795H68.5173H66.4137C65.2521 64.3795 64.3102 63.6846 64.3102 62.8277V50.4138C64.3104 49.5569 65.2521 48.862 66.4137 48.862Z" fill="white"/>
<path d="M3.3104 10.0691C4.47216 10.0691 5.41395 9.3743 5.41395 8.51727C5.41395 7.66023 4.47216 6.96547 3.3104 6.96547C2.14865 6.96547 1.20686 7.66023 1.20686 8.51727C1.20686 9.3743 2.14865 10.0691 3.3104 10.0691Z" fill="#FF6469"/>
<path d="M9.6208 10.0691C10.7826 10.0691 11.7244 9.3743 11.7244 8.51727C11.7244 7.66023 10.7826 6.96547 9.6208 6.96547C8.45905 6.96547 7.51726 7.66023 7.51726 8.51727C7.51726 9.3743 8.45905 10.0691 9.6208 10.0691Z" fill="#FFE169"/>
<path d="M15.931 10.0691C17.0927 10.0691 18.0345 9.3743 18.0345 8.51727C18.0345 7.66023 17.0927 6.96547 15.931 6.96547C14.7692 6.96547 13.8274 7.66023 13.8274 8.51727C13.8274 9.3743 14.7692 10.0691 15.931 10.0691Z" fill="#87E1AA"/>
<path d="M24.3449 10.0689H26.4485C27.6101 10.0689 28.552 9.37402 28.552 8.51708C28.552 7.66015 27.6101 6.96529 26.4485 6.96529H24.3449C23.1833 6.96529 22.2414 7.66015 22.2414 8.51708C22.2414 9.37419 23.1833 10.0689 24.3449 10.0689Z" fill="#E4EAF6"/>
<path d="M32.7586 10.0689H34.8622C36.0238 10.0689 36.9657 9.37402 36.9657 8.51708C36.9657 7.66015 36.0238 6.96529 34.8622 6.96529H32.7586C31.597 6.96529 30.6551 7.66015 30.6551 8.51708C30.6551 9.37419 31.597 10.0689 32.7586 10.0689Z" fill="#E4EAF6"/>
<path d="M102.172 10.0689H104.276C105.438 10.0689 106.379 9.37402 106.379 8.51708C106.379 7.66015 105.438 6.96529 104.276 6.96529H102.172C101.011 6.96529 100.069 7.66015 100.069 8.51708C100.069 9.37419 101.011 10.0689 102.172 10.0689Z" fill="#E4EAF6"/>
<path d="M112.69 6.96542H110.586C109.424 6.96542 108.482 7.66029 108.482 8.51722C108.482 9.37415 109.424 10.069 110.586 10.069H112.69C113.851 10.069 114.793 9.37415 114.793 8.51722C114.793 7.66029 113.851 6.96542 112.69 6.96542Z" fill="#E4EAF6"/>
<path d="M43.2759 10.0689H93.7586C94.9202 10.0689 95.8622 9.37402 95.8622 8.51708C95.8622 7.66015 94.9202 6.96529 93.7586 6.96529H43.2759C42.1143 6.96529 41.1723 7.66015 41.1723 8.51708C41.1723 9.37419 42.1143 10.0689 43.2759 10.0689Z" fill="#E4EAF6"/>
<path d="M112.69 13.1725H58V22.4829H114.793V14.7243C114.793 13.8672 113.851 13.1725 112.69 13.1725ZM72.7241 19.3793H64.3104C63.1488 19.3793 62.2069 18.6845 62.2069 17.8275C62.2069 16.9706 63.1488 16.2757 64.3104 16.2757H72.7241C73.8857 16.2757 74.8277 16.9706 74.8277 17.8275C74.8277 18.6845 73.8857 19.3793 72.7241 19.3793ZM89.5518 19.3793H81.1381C79.9764 19.3793 79.0345 18.6845 79.0345 17.8275C79.0345 16.9706 79.9764 16.2757 81.1381 16.2757H89.5518C90.7134 16.2757 91.6553 16.9706 91.6553 17.8275C91.6553 18.6845 90.7134 19.3793 89.5518 19.3793ZM106.379 19.3793H97.9655C96.8039 19.3793 95.8619 18.6845 95.8619 17.8275C95.8619 16.9706 96.8039 16.2757 97.9655 16.2757H106.379C107.541 16.2757 108.483 16.9706 108.483 17.8275C108.483 18.6845 107.541 19.3793 106.379 19.3793Z" fill="#FF6469"/>
<path d="M72.7241 16.2759H64.3104C63.1488 16.2759 62.2069 16.9708 62.2069 17.8277C62.2069 18.6846 63.1488 19.3795 64.3104 19.3795H72.7241C73.8857 19.3795 74.8277 18.6846 74.8277 17.8277C74.8277 16.9708 73.8857 16.2759 72.7241 16.2759Z" fill="#D2555F"/>
<path d="M89.5518 16.2759H81.1381C79.9764 16.2759 79.0345 16.9708 79.0345 17.8277C79.0345 18.6846 79.9764 19.3795 81.1381 19.3795H89.5518C90.7134 19.3795 91.6553 18.6846 91.6553 17.8277C91.6553 16.9708 90.7134 16.2759 89.5518 16.2759Z" fill="#D2555F"/>
<path d="M106.379 16.2759H97.9655C96.8039 16.2759 95.8619 16.9708 95.8619 17.8277C95.8619 18.6846 96.8039 19.3795 97.9655 19.3795H106.379C107.541 19.3795 108.483 18.6846 108.483 17.8277C108.483 16.9708 107.541 16.2759 106.379 16.2759Z" fill="#D2555F"/>
<path d="M66.4137 44.2068H81.1378C82.2994 44.2068 83.2414 43.512 83.2414 42.655V30.2412C83.2414 31.0981 82.2994 31.793 81.1378 31.793H66.4137C65.2521 31.793 64.3102 31.0981 64.3102 30.2412V42.655C64.3104 43.5121 65.2521 44.2068 66.4137 44.2068Z" fill="#DEE3ED"/>
<path d="M91.6551 44.2068H106.379C107.541 44.2068 108.483 43.512 108.483 42.655V30.2412C108.483 31.0981 107.541 31.793 106.379 31.793H91.6551C90.4935 31.793 89.5515 31.0981 89.5515 30.2412V42.655C89.5518 43.5121 90.4935 44.2068 91.6551 44.2068Z" fill="#DEE3ED"/>
<path d="M66.4137 31.7932H81.1378C82.2994 31.7932 83.2414 31.0983 83.2414 30.2414V28.6896C83.2414 27.8326 82.2994 27.1378 81.1378 27.1378H66.4137C65.2521 27.1378 64.3102 27.8326 64.3102 28.6896V30.2414C64.3104 31.0983 65.2521 31.7932 66.4137 31.7932Z" fill="#FF969B"/>
<path d="M91.6551 31.7932H106.379C107.541 31.7932 108.483 31.0983 108.483 30.2414V28.6896C108.483 27.8326 107.541 27.1378 106.379 27.1378H91.6551C90.4935 27.1378 89.5515 27.8326 89.5515 28.6896V30.2414C89.5518 31.0983 90.4935 31.7932 91.6551 31.7932Z" fill="#A0DCF0"/>
<path d="M70.6208 50.4138V62.8277C70.6208 63.6846 69.6789 64.3795 68.5173 64.3795H106.379C107.541 64.3795 108.483 63.6846 108.483 62.8277V50.4138C108.483 49.5569 107.541 48.862 106.379 48.862H68.5173C69.6789 48.862 70.6208 49.5569 70.6208 50.4138Z" fill="#DEE3ED"/>
<path d="M66.4137 64.3793H68.5173C69.6789 64.3793 70.6208 63.6845 70.6208 62.8275V50.4137C70.6208 49.5567 69.6789 48.8619 68.5173 48.8619H66.4137C65.2521 48.8619 64.3102 49.5567 64.3102 50.4137V62.8275C64.3104 63.6845 65.2521 64.3793 66.4137 64.3793Z" fill="#91E6BE"/>
<path d="M58 13.1725H3.3104C2.14878 13.1725 1.20686 13.8673 1.20686 14.7243V22.4829V67.4829C1.20686 68.3398 2.14878 69.0347 3.3104 69.0347H58V22.4827V13.1725ZM18.0345 17.8275H51.6896C52.8512 17.8275 53.7931 18.5224 53.7931 19.3793C53.7931 20.2363 52.8512 20.9311 51.6896 20.9311H18.0345C16.8729 20.9311 15.931 20.2363 15.931 19.3793C15.931 18.5224 16.8729 17.8275 18.0345 17.8275ZM7.51726 17.8275H9.6208C10.7824 17.8275 11.7244 18.5224 11.7244 19.3793C11.7244 20.2363 10.7824 20.9311 9.6208 20.9311H7.51726C6.35564 20.9311 5.41371 20.2363 5.41371 19.3793C5.41371 18.5224 6.35564 17.8275 7.51726 17.8275ZM28.5518 27.138H22.2414C21.0798 27.138 20.1378 26.4431 20.1378 25.5862C20.1378 24.7292 21.0798 24.0344 22.2414 24.0344H28.5518C29.7134 24.0344 30.6553 24.7292 30.6553 25.5862C30.6551 26.4431 29.7134 27.138 28.5518 27.138ZM30.6551 31.7932C30.6551 32.6501 29.7132 33.345 28.5515 33.345H22.2411C21.0795 33.345 20.1376 32.6501 20.1376 31.7932C20.1376 30.9362 21.0795 30.2414 22.2411 30.2414H28.5515C29.7134 30.2414 30.6551 30.9362 30.6551 31.7932ZM7.51726 42.6552H9.6208C10.7824 42.6552 11.7244 43.3501 11.7244 44.207C11.7244 45.064 10.7824 45.7588 9.6208 45.7588H7.51726C6.35564 45.7588 5.41371 45.064 5.41371 44.207C5.41371 43.3501 6.35564 42.6552 7.51726 42.6552ZM5.41371 38C5.41371 37.1431 6.35564 36.4482 7.51726 36.4482H9.6208C10.7824 36.4482 11.7244 37.1431 11.7244 38C11.7244 38.8569 10.7824 39.5518 9.6208 39.5518H7.51726C6.35564 39.5518 5.41371 38.8569 5.41371 38ZM11.7241 48.8621H13.8277C14.9893 48.8621 15.9312 49.5569 15.9312 50.4139C15.9312 51.2708 14.9893 51.9656 13.8277 51.9656H11.7241C10.5625 51.9656 9.62057 51.2708 9.62057 50.4139C9.62057 49.5569 10.5625 48.8621 11.7241 48.8621ZM13.8277 33.3448H11.7241C10.5625 33.3448 9.62057 32.6499 9.62057 31.793C9.62057 30.9361 10.5625 30.2412 11.7241 30.2412H13.8277C14.9893 30.2412 15.9312 30.9361 15.9312 31.793C15.9312 32.6499 14.9893 33.3448 13.8277 33.3448ZM13.8277 27.138H11.7241C10.5625 27.138 9.62057 26.4431 9.62057 25.5862C9.62057 24.7292 10.5625 24.0344 11.7241 24.0344H13.8277C14.9893 24.0344 15.9312 24.7292 15.9312 25.5862C15.931 26.4431 14.9893 27.138 13.8277 27.138ZM9.6208 64.3793H7.51726C6.35564 64.3793 5.41371 63.6845 5.41371 62.8275C5.41371 61.9706 6.35564 61.2757 7.51726 61.2757H9.6208C10.7824 61.2757 11.7244 61.9706 11.7244 62.8275C11.7241 63.6845 10.7824 64.3793 9.6208 64.3793ZM13.8277 58.1725H11.7241C10.5625 58.1725 9.62057 57.4776 9.62057 56.6207C9.62057 55.7638 10.5625 55.0689 11.7241 55.0689H13.8277C14.9893 55.0689 15.9312 55.7638 15.9312 56.6207C15.9312 57.4776 14.9893 58.1725 13.8277 58.1725ZM51.6896 64.3793H18.0345C16.8729 64.3793 15.931 63.6845 15.931 62.8275C15.931 61.9706 16.8729 61.2757 18.0345 61.2757H51.6896C52.8512 61.2757 53.7931 61.9706 53.7931 62.8275C53.7931 63.6845 52.8512 64.3793 51.6896 64.3793ZM22.2414 55.0689H28.5518C29.7134 55.0689 30.6553 55.7638 30.6553 56.6207C30.6553 57.4776 29.7134 58.1725 28.5518 58.1725H22.2414C21.0798 58.1725 20.1378 57.4776 20.1378 56.6207C20.1378 55.7638 21.0798 55.0689 22.2414 55.0689ZM20.1378 50.4139C20.1378 49.5569 21.0798 48.8621 22.2414 48.8621H28.5518C29.7134 48.8621 30.6553 49.5569 30.6553 50.4139C30.6553 51.2708 29.7134 51.9656 28.5518 51.9656H22.2414C21.0798 51.9655 20.1378 51.2708 20.1378 50.4139ZM51.6896 58.1725H36.9655C35.8039 58.1725 34.8619 57.4776 34.8619 56.6207C34.8619 55.7638 35.8039 55.0689 36.9655 55.0689H51.6896C52.8512 55.0689 53.7931 55.7638 53.7931 56.6207C53.7931 57.4776 52.8512 58.1725 51.6896 58.1725ZM51.6896 51.9655H36.9655C35.8039 51.9655 34.8619 51.2706 34.8619 50.4137C34.8619 49.5567 35.8039 48.8619 36.9655 48.8619H51.6896C52.8512 48.8619 53.7931 49.5567 53.7931 50.4137C53.7931 51.2706 52.8512 51.9655 51.6896 51.9655ZM51.6896 45.7586H18.0345C16.8729 45.7586 15.931 45.0638 15.931 44.2068C15.931 43.3499 16.8729 42.655 18.0345 42.655H51.6896C52.8512 42.655 53.7931 43.3499 53.7931 44.2068C53.7931 45.0638 52.8512 45.7586 51.6896 45.7586ZM51.6896 39.5518H18.0345C16.8729 39.5518 15.931 38.8569 15.931 38C15.931 37.1431 16.8729 36.4482 18.0345 36.4482H51.6896C52.8512 36.4482 53.7931 37.1431 53.7931 38C53.7931 38.8569 52.8512 39.5518 51.6896 39.5518ZM51.6896 33.3448H36.9655C35.8039 33.3448 34.8619 32.6499 34.8619 31.793C34.8619 30.9361 35.8039 30.2412 36.9655 30.2412H51.6896C52.8512 30.2412 53.7931 30.9361 53.7931 31.793C53.7931 32.6499 52.8512 33.3448 51.6896 33.3448ZM51.6896 27.138H36.9655C35.8039 27.138 34.8619 26.4431 34.8619 25.5862C34.8619 24.7292 35.8039 24.0344 36.9655 24.0344H51.6896C52.8512 24.0344 53.7931 24.7292 53.7931 25.5862C53.7931 26.4431 52.8512 27.138 51.6896 27.138Z" fill="#464655"/>
<path d="M18.0345 20.9311H51.6896C52.8512 20.9311 53.7931 20.2362 53.7931 19.3793C53.7931 18.5224 52.8512 17.8275 51.6896 17.8275H18.0345C16.8729 17.8275 15.931 18.5224 15.931 19.3793C15.931 20.2362 16.8729 20.9311 18.0345 20.9311Z" fill="#FFE169"/>
<path d="M28.5518 24.0345H22.2414C21.0798 24.0345 20.1378 24.7294 20.1378 25.5863C20.1378 26.4433 21.0798 27.1381 22.2414 27.1381H28.5518C29.7134 27.1381 30.6553 26.4433 30.6553 25.5863C30.6551 24.7292 29.7134 24.0345 28.5518 24.0345Z" fill="#91E6BE"/>
<path d="M28.5518 30.2414H22.2414C21.0798 30.2414 20.1378 30.9362 20.1378 31.7932C20.1378 32.6501 21.0798 33.345 22.2414 33.345H28.5518C29.7134 33.345 30.6553 32.6501 30.6553 31.7932C30.6553 30.9362 29.7134 30.2414 28.5518 30.2414Z" fill="#91E6BE"/>
<path d="M51.6896 36.4482H18.0345C16.8729 36.4482 15.931 37.1431 15.931 38C15.931 38.8569 16.8729 39.5518 18.0345 39.5518H51.6896C52.8512 39.5518 53.7931 38.8569 53.7931 38C53.7931 37.1431 52.8512 36.4482 51.6896 36.4482Z" fill="#FFE169"/>
<path d="M51.6896 42.6552H18.0345C16.8729 42.6552 15.931 43.3501 15.931 44.207C15.931 45.0639 16.8729 45.7588 18.0345 45.7588H51.6896C52.8512 45.7588 53.7931 45.0639 53.7931 44.207C53.7931 43.3501 52.8512 42.6552 51.6896 42.6552Z" fill="white"/>
<path d="M51.6896 24.0345H36.9655C35.8039 24.0345 34.8619 24.7294 34.8619 25.5863C34.8619 26.4433 35.8039 27.1381 36.9655 27.1381H51.6896C52.8512 27.1381 53.7931 26.4433 53.7931 25.5863C53.7931 24.7292 52.8512 24.0345 51.6896 24.0345Z" fill="white"/>
<path d="M51.6896 30.2414H36.9655C35.8039 30.2414 34.8619 30.9362 34.8619 31.7932C34.8619 32.6501 35.8039 33.345 36.9655 33.345H51.6896C52.8512 33.345 53.7931 32.6501 53.7931 31.7932C53.7931 30.9362 52.8512 30.2414 51.6896 30.2414Z" fill="white"/>
<path d="M51.6896 48.862H36.9655C35.8039 48.862 34.8619 49.5569 34.8619 50.4138C34.8619 51.2708 35.8039 51.9656 36.9655 51.9656H51.6896C52.8512 51.9656 53.7931 51.2708 53.7931 50.4138C53.7931 49.5569 52.8512 48.862 51.6896 48.862Z" fill="white"/>
<path d="M51.6896 55.0689H36.9655C35.8039 55.0689 34.8619 55.7637 34.8619 56.6207C34.8619 57.4776 35.8039 58.1725 36.9655 58.1725H51.6896C52.8512 58.1725 53.7931 57.4776 53.7931 56.6207C53.7931 55.7637 52.8512 55.0689 51.6896 55.0689Z" fill="white"/>
<path d="M22.2414 51.9655H28.5518C29.7134 51.9655 30.6553 51.2706 30.6553 50.4137C30.6553 49.5567 29.7134 48.8619 28.5518 48.8619H22.2414C21.0798 48.8619 20.1378 49.5567 20.1378 50.4137C20.1378 51.2706 21.0798 51.9655 22.2414 51.9655Z" fill="#91E6BE"/>
<path d="M22.2414 58.1725H28.5518C29.7134 58.1725 30.6553 57.4776 30.6553 56.6207C30.6553 55.7638 29.7134 55.0689 28.5518 55.0689H22.2414C21.0798 55.0689 20.1378 55.7638 20.1378 56.6207C20.1378 57.4776 21.0798 58.1725 22.2414 58.1725Z" fill="#91E6BE"/>
<path d="M51.6896 61.2759H18.0345C16.8729 61.2759 15.931 61.9708 15.931 62.8277C15.931 63.6846 16.8729 64.3795 18.0345 64.3795H51.6896C52.8512 64.3795 53.7931 63.6846 53.7931 62.8277C53.7931 61.9706 52.8512 61.2759 51.6896 61.2759Z" fill="#FFE169"/>
<path d="M7.51726 20.9311H9.6208C10.7824 20.9311 11.7244 20.2362 11.7244 19.3793C11.7244 18.5224 10.7824 17.8275 9.6208 17.8275H7.51726C6.35564 17.8275 5.41371 18.5224 5.41371 19.3793C5.41371 20.2362 6.35564 20.9311 7.51726 20.9311Z" fill="#FF6469"/>
<path d="M13.8277 24.0345H11.7241C10.5625 24.0345 9.62057 24.7294 9.62057 25.5863C9.62057 26.4433 10.5625 27.1381 11.7241 27.1381H13.8277C14.9893 27.1381 15.9312 26.4433 15.9312 25.5863C15.931 24.7292 14.9893 24.0345 13.8277 24.0345Z" fill="#FF6469"/>
<path d="M13.8277 30.2414H11.7241C10.5625 30.2414 9.62057 30.9362 9.62057 31.7932C9.62057 32.6501 10.5625 33.345 11.7241 33.345H13.8277C14.9893 33.345 15.9312 32.6501 15.9312 31.7932C15.9312 30.9362 14.9893 30.2414 13.8277 30.2414Z" fill="#FF6469"/>
<path d="M7.51726 39.5518H9.6208C10.7824 39.5518 11.7244 38.8569 11.7244 38C11.7244 37.1431 10.7824 36.4482 9.6208 36.4482H7.51726C6.35564 36.4482 5.41371 37.1431 5.41371 38C5.41371 38.8569 6.35564 39.5518 7.51726 39.5518Z" fill="#FF6469"/>
<path d="M7.51726 45.7586H9.6208C10.7824 45.7586 11.7244 45.0638 11.7244 44.2068C11.7244 43.3499 10.7824 42.655 9.6208 42.655H7.51726C6.35564 42.655 5.41371 43.3499 5.41371 44.2068C5.41371 45.0638 6.35564 45.7586 7.51726 45.7586Z" fill="#FF6469"/>
<path d="M11.7241 51.9655H13.8277C14.9893 51.9655 15.9312 51.2706 15.9312 50.4137C15.9312 49.5567 14.9893 48.8619 13.8277 48.8619H11.7241C10.5625 48.8619 9.62057 49.5567 9.62057 50.4137C9.62057 51.2706 10.5625 51.9655 11.7241 51.9655Z" fill="#FF6469"/>
<path d="M13.8277 55.0689H11.7241C10.5625 55.0689 9.62057 55.7637 9.62057 56.6207C9.62057 57.4776 10.5625 58.1725 11.7241 58.1725H13.8277C14.9893 58.1725 15.9312 57.4776 15.9312 56.6207C15.9312 55.7637 14.9893 55.0689 13.8277 55.0689Z" fill="#FF6469"/>
<path d="M9.6208 61.2759H7.51726C6.35564 61.2759 5.41371 61.9708 5.41371 62.8277C5.41371 63.6846 6.35564 64.3795 7.51726 64.3795H9.6208C10.7824 64.3795 11.7244 63.6846 11.7244 62.8277C11.7241 61.9706 10.7824 61.2759 9.6208 61.2759Z" fill="#FF6469"/>
</g>
<g filter="url(#filter2_d_6_2)">
<path d="M57.1145 81.7228C58.5991 81.7228 59.8027 80.2194 59.8027 78.3647C59.8027 76.5101 58.5991 75.0067 57.1145 75.0067C55.6298 75.0067 54.4262 76.5101 54.4262 78.3647C54.4262 80.2194 55.6298 81.7228 57.1145 81.7228Z" fill="#1E2C33"/>
</g>
</g>
<defs>
<filter id="filter0_d_6_2" x="-4" y="3.96548" width="123" height="115.069" filterUnits="userSpaceOnUse" color-interpolation-filters="sRGB">
<feFlood flood-opacity="0" result="BackgroundImageFix"/>
<feColorMatrix in="SourceAlpha" type="matrix" values="0 0 0 0 0 0 0 0 0 0 0 0 0 0 0 0 0 0 127 0" result="hardAlpha"/>
<feOffset dy="4"/>
<feGaussianBlur stdDeviation="2"/>
<feComposite in2="hardAlpha" operator="out"/>
<feColorMatrix type="matrix" values="0 0 0 0 0 0 0 0 0 0 0 0 0 0 0 0 0 0 0.25 0"/>
<feBlend mode="normal" in2="BackgroundImageFix" result="effect1_dropShadow_6_2"/>
<feBlend mode="normal" in="SourceGraphic" in2="effect1_dropShadow_6_2" result="shape"/>
</filter>
<filter id="filter1_d_6_2" x="-7" y="-7" width="130" height="98" filterUnits="userSpaceOnUse" color-interpolation-filters="sRGB">
<feFlood flood-opacity="0" result="BackgroundImageFix"/>
<feColorMatrix in="SourceAlpha" type="matrix" values="0 0 0 0 0 0 0 0 0 0 0 0 0 0 0 0 0 0 127 0" result="hardAlpha"/>
<feOffset dy="4"/>
<feGaussianBlur stdDeviation="2"/>
<feComposite in2="hardAlpha" operator="out"/>
<feColorMatrix type="matrix" values="0 0 0 0 0 0 0 0 0 0 0 0 0 0 0 0 0 0 0.25 0"/>
<feBlend mode="normal" in2="BackgroundImageFix" result="effect1_dropShadow_6_2"/>
<feBlend mode="normal" in="SourceGraphic" in2="effect1_dropShadow_6_2" result="shape"/>
</filter>
<filter id="filter2_d_6_2" x="50.4262" y="75.0067" width="13.3765" height="14.7162" filterUnits="userSpaceOnUse" color-interpolation-filters="sRGB">
<feFlood flood-opacity="0" result="BackgroundImageFix"/>
<feColorMatrix in="SourceAlpha" type="matrix" values="0 0 0 0 0 0 0 0 0 0 0 0 0 0 0 0 0 0 127 0" result="hardAlpha"/>
<feOffset dy="4"/>
<feGaussianBlur stdDeviation="2"/>
<feComposite in2="hardAlpha" operator="out"/>
<feColorMatrix type="matrix" values="0 0 0 0 0 0 0 0 0 0 0 0 0 0 0 0 0 0 0.25 0"/>
<feBlend mode="normal" in2="BackgroundImageFix" result="effect1_dropShadow_6_2"/>
<feBlend mode="normal" in="SourceGraphic" in2="effect1_dropShadow_6_2" result="shape"/>
</filter>
<clipPath id="clip0_6_2">
<rect width="115" height="115" fill="white"/>
</clipPath>
</defs>
</svg>
